<?xml version="1.0" standalone="no"?><!DOCTYPE svg PUBLIC "-//W3C//DTD SVG 1.1//EN" "http://www.w3.org/Graphics/SVG/1.1/DTD/svg11.dtd"><svg t="1491982129074" class="icon" style="" viewBox="0 0 1024 1024" version="1.1" xmlns="http://www.w3.org/2000/svg" p-id="2427" xmlns:xlink="http://www.w3.org/1999/xlink" width="128" height="128"><defs><style type="text/css"></style></defs><path d="M271.095301 199.852724c0 18.024515 3.587712 36.046984 10.498098 52.671617 6.912433 16.622586 17.23657 31.934317 30.010501 44.707225 12.772908 12.773931 28.17162 22.923082 44.883233 29.835516 16.711614 6.912433 34.821063 10.498098 52.93256 10.498098s36.220946-3.585665 53.019541-10.498098c16.711614-6.912433 32.110325-17.060561 44.884256-29.835516 12.772908-12.772908 23.097044-27.997658 30.009478-44.707225 6.912433-16.624632 10.498098-34.647101 10.498098-52.671617 0-18.022469-3.586688-36.045961-10.498098-52.66957-6.912433-16.622586-17.148565-31.934317-30.009478-44.707225-12.773931-12.773931-28.172643-22.923082-44.884256-29.835516-16.622586-6.912433-34.734082-10.498098-52.844555-10.498098-18.111496 0-36.22197 3.586688-52.93256 10.498098-16.711614 6.912433-32.110325 17.148565-44.884256 29.835516-12.772908 12.685927-23.097044 27.997658-30.009478 44.707225C274.683013 163.807786 271.095301 181.830255 271.095301 199.852724L271.095301 199.852724 271.095301 199.852724zM271.095301 199.852724" p-id="2428" fill="#ff4949"></path><path d="M76.250638 465.654462c0 15.135722 3.062755 30.27656 8.837272 44.275389 5.860475 13.998829 14.435781 26.854625 25.197892 37.533848 10.761088 10.674107 23.708981 19.335371 37.796838 25.105794 14.08581 5.773494 29.308513 8.836249 44.533262 8.836249 15.222703 0 30.446429-2.973728 44.533262-8.836249 14.090926-5.770424 26.946722-14.349823 37.796838-25.105794 10.761088-10.761088 19.427468-23.540136 25.203008-37.533848 5.857405-14.003945 8.836249-29.139667 8.836249-44.275389 0-15.130605-3.062755-30.272467-8.836249-44.270273-5.862521-13.998829-14.436804-26.855648-25.203008-37.533848-10.756995-10.674107-23.705911-19.335371-37.796838-25.105794-14.086833-5.774517-29.305443-8.837272-44.533262-8.837272-15.22475 0-30.447453 2.974751-44.533262 8.837272-14.086833 5.774517-26.948769 14.3488-37.796838 25.105794-10.762111 10.761088-19.424398 23.540136-25.197892 37.533848C79.226412 435.293991 76.250638 450.429713 76.250638 465.654462L76.250638 465.654462 76.250638 465.654462zM76.250638 465.654462" p-id="2429" fill="#ff4949"></path><path d="M181.852768 762.952542c0 13.647835 2.712785 27.296693 7.962346 39.983643 5.248537 12.598946 13.035898 24.234961 22.747073 33.858132 9.712199 9.625218 21.348214 17.411555 34.034141 22.660092 12.68695 5.249561 26.423813 7.962346 40.159652 7.962346 13.735839 0 27.472702-2.712785 40.158628-7.962346 12.68695-5.248537 24.322965-12.948917 34.035164-22.660092 9.712199-9.623171 17.497513-21.259186 22.748097-33.858132 5.249561-12.598946 7.962346-26.247804 7.962346-39.983643 0-13.648858-2.707668-27.297716-7.962346-39.983643-5.244444-12.598946-13.035898-24.235984-22.748097-33.854039-9.712199-9.623171-21.348214-17.410532-34.035164-22.660092-12.685927-5.249561-26.421766-7.961322-40.158628-7.961322-13.735839 0-27.472702 2.711761-40.159652 7.961322-12.685927 5.249561-24.321942 12.948917-34.034141 22.660092-9.712199 9.623171-17.498536 21.256116-22.747073 33.854039C184.652534 735.653803 181.852768 749.302661 181.852768 762.952542L181.852768 762.952542 181.852768 762.952542zM181.852768 762.952542" p-id="2430" fill="#ff4949"></path><path d="M464.102107 868.209818c0 23.535019 9.712199 46.889937 26.423813 63.517639 16.71059 16.624632 40.245609 26.335808 63.868633 26.335808 23.622 0 47.158043-9.712199 63.868633-26.335808 16.711614-16.627702 26.421766-39.98262 26.421766-63.517639 0-23.540136-9.711176-46.896076-26.421766-63.524802-16.711614-16.624632-40.246633-26.334785-63.868633-26.334785-23.624047 0-47.159066 9.715269-63.868633 26.334785C473.814306 821.313741 464.102107 844.669682 464.102107 868.209818L464.102107 868.209818 464.102107 868.209818zM464.102107 868.209818" p-id="2431" fill="#ff4949"></path><path d="M701.031261 762.251577c0 20.303418 8.399297 40.509622 22.835078 54.857399 14.436804 14.3488 34.734082 22.747073 55.207369 22.747073s40.771589-8.399297 55.208393-22.747073c14.435781-14.3488 22.835078-34.559097 22.835078-54.857399 0-20.297278-8.399297-40.504506-22.835078-54.852282-14.436804-14.3488-34.735106-22.75219-55.208393-22.75219s-40.770566 8.404414-55.207369 22.75219C709.517539 721.747071 701.031261 741.959416 701.031261 762.251577L701.031261 762.251577 701.031261 762.251577zM701.031261 762.251577" p-id="2432" fill="#ff4949"></path><path d="M811.531957 565.570079c0 17.410532 7.1744 34.739199 19.59836 47.070039 12.424984 12.341073 29.835516 19.511379 47.333028 19.511379 17.499559 0 34.997072-7.1744 47.333028-19.511379 12.335956-12.33084 19.59836-29.659507 19.59836-47.070039 0-17.406438-7.173376-34.734082-19.59836-47.070039-12.422937-12.335956-29.833469-19.511379-47.333028-19.511379-17.497513 0-34.908044 7.1744-47.333028 19.511379C818.70738 530.835997 811.531957 548.159548 811.531957 565.570079L811.531957 565.570079 811.531957 565.570079zM811.531957 565.570079" p-id="2433" fill="#ff4949"></path><path d="M803.221688 380.436592c0 13.036921 5.424546 26.078958 14.697747 35.348066 9.274224 9.274224 22.398126 14.610766 35.522028 14.610766 13.123902 0 26.247804-5.336542 35.522028-14.610766 9.279341-9.269108 14.697747-22.224164 14.697747-35.348066 0-13.035898-5.423523-26.072819-14.697747-35.346019-9.274224-9.274224-22.311145-14.610766-35.522028-14.610766-13.123902 0-26.160823 5.336542-35.522028 14.610766C808.55823 354.363773 803.221688 367.400694 803.221688 380.436592L803.221688 380.436592 803.221688 380.436592zM803.221688 380.436592" p-id="2434" fill="#ff4949"></path><path d="M704.179974 247.62475c0 9.79918 4.024663 19.422352 10.936073 26.334785 6.912433 6.912433 16.711614 10.94119 26.510794 10.94119s19.59836-4.028757 26.508747-10.94119c6.912433-6.912433 10.94119-16.622586 10.94119-26.334785 0-9.79918-4.02364-19.422352-10.94119-26.334785-6.91141-6.912433-16.71059-10.936073-26.508747-10.936073s-19.59836 4.024663-26.510794 10.936073C708.204637 228.201375 704.179974 237.917668 704.179974 247.62475L704.179974 247.62475 704.179974 247.62475zM704.179974 247.62475" p-id="2435" fill="#ff4949"></path></svg>