<?xml version="1.0" standalone="no"?><!DOCTYPE svg PUBLIC "-//W3C//DTD SVG 1.1//EN" "http://www.w3.org/Graphics/SVG/1.1/DTD/svg11.dtd"><svg t="1491990714549" class="icon" style="" viewBox="0 0 1024 1024" version="1.1" xmlns="http://www.w3.org/2000/svg" p-id="1894" xmlns:xlink="http://www.w3.org/1999/xlink" width="128" height="128"><defs><style type="text/css"></style></defs><path d="M512 0C229.230822 0 0 229.231845 0 512 0 794.771225 229.230822 1024 512 1024c282.770202 0 512.001023-229.229798 512.001023-512 0-282.769178-229.230822-512-512.001023-512z m320.665277 832.6663c-41.665958 41.664935-90.170672 74.372871-144.164401 97.209996-55.870472 23.63121-115.253954 35.614126-176.500876 35.614125s-120.630405-11.982916-176.500876-35.614125c-53.994752-22.838148-102.497419-55.543014-144.164401-97.209996-41.665958-41.664935-74.372871-90.170672-97.211019-144.1644-23.63121-55.870472-35.613102-115.253954-35.613102-176.500877s11.981892-120.629381 35.613102-176.499853C116.961852 281.506419 149.667741 233.002728 191.334723 191.335746s90.170672-74.372871 144.164401-97.211019C391.369595 70.493517 450.753077 58.510602 512 58.510602s120.630405 11.981892 176.500876 35.614125c53.994752 22.838148 102.499465 55.544037 144.164401 97.211019 41.666982 41.666982 74.373894 90.170672 97.211019 144.165424 23.63121 55.870472 35.614126 115.253954 35.614125 176.499853 0 61.246923-11.981892 120.630405-35.614125 176.500877-22.837124 53.993728-55.543014 102.498442-97.211019 144.1644z m-581.231781-445.782879c0 38.131459 30.91101 69.042469 69.042469 69.042469s69.042469-30.91101 69.04247-69.042469-30.91101-69.042469-69.04247-69.042469-69.042469 30.91101-69.042469 69.042469z m380.318912 0c0 38.131459 30.91101 69.042469 69.042469 69.042469s69.042469-30.91101 69.042469-69.042469-30.91101-69.042469-69.042469-69.042469c-38.130436 0-69.042469 30.91101-69.042469 69.042469z" fill="#2c2c2c" p-id="1895"></path><path d="M794.479583 770.015402c-19.504216-61.216223-56.291051-113.87249-106.387006-152.273079-51.408857-39.409568-112.418372-60.239989-176.434361-60.23999-63.920822 0-124.858706 20.775162-176.223561 60.077284-50.04786 38.294165-86.850044 90.823542-106.429984 151.907759-4.932336 15.387455 3.543709 31.857569 18.929118 36.788881 15.387455 4.933359 31.857569-3.544733 36.788881-18.929118 32.848129-102.478999 124.046201-171.33318 226.934522-171.33318 103.084797 0 194.337103 69.026096 227.070623 171.762968 4.904707 15.395642 21.357424 23.901363 36.755112 18.993587 15.397688-4.90573 23.901363-21.361517 18.996656-36.755112z" fill="#2c2c2c" p-id="1896"></path></svg>