<?xml version="1.0" standalone="no"?><!DOCTYPE svg PUBLIC "-//W3C//DTD SVG 1.1//EN" "http://www.w3.org/Graphics/SVG/1.1/DTD/svg11.dtd"><svg t="1491998115981" class="icon" style="" viewBox="0 0 1024 1024" version="1.1" xmlns="http://www.w3.org/2000/svg" p-id="2410" xmlns:xlink="http://www.w3.org/1999/xlink" width="128" height="128"><defs><style type="text/css"></style></defs><path d="M836.742 657.002c-86.483 91.239-203.191 141.543-328.793 141.543-125.578 0-242.325-50.307-328.793-141.543-24.581-25.993-65.54-27.050-91.454-2.468-25.962 24.518-27.077 65.478-2.499 91.414 111.14 117.35 261.296 181.955 422.742 181.955 161.479 0 311.603-64.609 422.742-181.955 24.581-25.938 23.463-66.9-2.468-91.414-25.938-24.581-66.867-23.463-91.479 2.468zM184.436 352.509c70.811 0 128.193-57.379 128.193-128.224 0-70.811-57.379-128.224-128.193-128.224-70.844 0-128.224 57.413-128.224 128.224 0.007 70.811 57.413 128.224 128.224 128.224zM839.564 352.509c70.844 0 128.193-57.379 128.193-128.224 0-70.811-57.349-128.224-128.193-128.224s-128.193 57.413-128.193 128.224c0 70.811 57.349 128.224 128.193 128.224z" p-id="2411" fill="#e23f3a"></path></svg>