<?xml version="1.0" standalone="no"?><!DOCTYPE svg PUBLIC "-//W3C//DTD SVG 1.1//EN" "http://www.w3.org/Graphics/SVG/1.1/DTD/svg11.dtd"><svg t="1493805231027" class="icon" style="" viewBox="0 0 1024 1024" version="1.1" xmlns="http://www.w3.org/2000/svg" p-id="8571" xmlns:xlink="http://www.w3.org/1999/xlink" width="48" height="48"><defs><style type="text/css"></style></defs><path d="M144.695652 988.382609l0-400.695652 51.2 0 0 349.495652 641.113043 0L837.008696 587.686957 890.434783 587.686957l0 400.695652L144.695652 988.382609 144.695652 988.382609zM327.234783 645.565217c-22.26087-26.713043-35.617391-60.104348-35.617391-93.495652 0-77.913043 62.330435-140.243478 140.243478-140.243478 31.165217 0 60.104348 11.130435 84.591304 28.93913l2.226087 2.226087 2.226087-2.226087c24.486957-17.808696 53.426087-28.93913 84.591304-28.93913 77.913043 0 140.243478 62.330435 140.243478 140.243478 0 33.391304-11.130435 64.556522-33.391304 91.269565l-120.208696 109.078261-35.617391-37.843478 120.208696-109.078261 0 0c11.130435-13.356522 17.808696-35.617391 17.808696-53.426087 0-48.973913-40.069565-86.817391-86.817391-86.817391-26.713043 0-51.2 11.130435-66.782609 31.165217l-20.034783 24.486957-20.034783-24.486957c-15.582609-20.034783-40.069565-31.165217-66.782609-31.165217-48.973913 0-86.817391 40.069565-86.817391 86.817391 0 20.034783 6.678261 42.295652 20.034783 57.878261l0 0 182.53913 169.182609L512 816.973913 327.234783 645.565217 327.234783 645.565217zM518.678261 86.817391 66.782609 567.652174l-37.843478-35.617391 489.73913-523.130435 489.73913 523.130435-37.843478 35.617391L518.678261 86.817391 518.678261 86.817391z" p-id="8572" fill="#666666"></path></svg>