<?xml version="1.0" standalone="no"?><!DOCTYPE svg PUBLIC "-//W3C//DTD SVG 1.1//EN" "http://www.w3.org/Graphics/SVG/1.1/DTD/svg11.dtd"><svg t="1493805272779" class="icon" style="" viewBox="0 0 1024 1024" version="1.1" xmlns="http://www.w3.org/2000/svg" p-id="9296" xmlns:xlink="http://www.w3.org/1999/xlink" width="48" height="48"><defs><style type="text/css"></style></defs><path d="M122.833071 195.427948h129.3633c8.939603 0 16.164145-6.14393 16.164145-15.074324 0-8.951883-7.242961-15.07637-16.164145-15.07637H122.833071c-8.931416 0-16.144702 6.124488-16.144702 15.07637-0.001023 8.930393 7.232728 15.074324 16.144702 15.074324zM122.833071 326.077543h129.3633c8.939603 0 16.164145-6.144954 16.164145-15.075346s-7.242961-15.074324-16.164145-15.074324H122.833071c-8.931416 0-16.144702 6.14393-16.144702 15.074324s7.232728 15.075347 16.144702 15.075346zM122.833071 466.778052h129.3633c8.939603 0 16.164145-6.145977 16.164145-15.07637s-7.242961-15.074324-16.164145-15.074323H122.833071c-8.931416 0-16.144702 6.14393-16.144702 15.074323s7.232728 15.07637 16.144702 15.07637zM122.833071 607.476515h129.3633c8.939603 0 16.164145-16.193821 16.164145-25.125237 0-8.949836-7.242961-25.125237-16.164145-25.125237H122.833071c-8.931416 0-16.144702 16.175401-16.144702 25.125237-0.001023 8.931416 7.232728 25.125237 16.144702 25.125237zM122.833071 748.178047h129.3633c8.939603 0 16.164145-11.171434 16.164145-20.10285 0-8.949836-7.242961-20.100804-16.164145-20.100804H122.833071c-8.931416 0-16.144702 11.149944-16.144702 20.100804-0.001023 8.931416 7.232728 20.10285 16.144702 20.10285zM268.380982 858.725816c0-8.950859-7.232728-20.09978-16.165168-20.09978H122.851491c-8.931416 0-16.143679 11.148921-16.143679 20.09978 0 8.93244 7.232728 20.09978 16.143679 20.09978h129.364323c8.92016 0 16.165168-11.167341 16.165168-20.09978z" fill="#666666" p-id="9297"></path><path d="M173.613618 77.104075v68.072375h78.582753c17.842367 0 32.348756 12.308327 32.348755 30.151718 0 17.821901-14.485923 30.148647-32.348755 30.148647h-78.582753v70.350254h78.582753c17.842367 0 32.348756 17.35118 32.348755 35.174104 0 17.823947-14.485923 35.175127-32.348755 35.175127h-78.582753v80.399122h78.582753c17.842367 0 32.348756 12.32777 32.348755 30.151717 0 17.821901-14.485923 30.148647-32.348755 30.148647h-78.582753v60.300365h78.582753c17.842367 0 32.348756 17.352203 32.348755 35.175127s-14.485923 35.175127-32.348755 35.175127h-78.582753v80.400145h78.582753c17.842367 0 32.348756 12.307304 32.348755 30.148647 0 17.824971-14.485923 30.151717-32.348755 30.151717h-78.582753v60.300365h78.582753c17.842367 0 32.348756 22.355147 32.348755 40.198537 0 17.823947-14.485923 40.200584-32.348755 40.200584h-78.582753v35.154661c0 8.93244 4.965082 25.145703 13.926174 25.145703h498.623341V64.772212H187.539792c-8.962116 0-13.926174 3.400446-13.926174 12.331863zM822.965869 64.772212h-96.606245v894.454552h96.596012c49.130977 0 94.355995-48.483224 94.355995-93.532233V148.081617c0-45.616944-46.128597-83.309404-94.345762-83.309405z m-6.154163 513.594311c0 8.931416-6.123464 16.153912-15.075347 16.153912-8.949836 0-15.075347-7.223518-15.075347-16.153912V432.839079c0-8.931416 6.125511-16.173354 15.075347-16.173354 8.951883 0 15.075347 7.241938 15.075347 16.173354v145.527444z" fill="#666666" p-id="9298"></path></svg>