<?xml version="1.0" standalone="no"?><!DOCTYPE svg PUBLIC "-//W3C//DTD SVG 1.1//EN" "http://www.w3.org/Graphics/SVG/1.1/DTD/svg11.dtd"><svg t="1493805025158" class="icon" style="" viewBox="0 0 1024 1024" version="1.1" xmlns="http://www.w3.org/2000/svg" p-id="6558" xmlns:xlink="http://www.w3.org/1999/xlink" width="48" height="48"><defs><style type="text/css"></style></defs><path d="M862.315789 1024H242.526316a107.789474 107.789474 0 0 1-107.789474-107.789474v-53.894737h121.263158a67.368421 67.368421 0 0 0 67.368421-67.368421v-26.947368A67.368421 67.368421 0 0 0 256 700.631579H134.736842v-107.789474h121.263158a67.368421 67.368421 0 0 0 67.368421-67.368421v-26.947368A67.368421 67.368421 0 0 0 256 431.157895H134.736842v-107.789474h121.263158A67.368421 67.368421 0 0 0 323.368421 256v-26.947368A67.368421 67.368421 0 0 0 256 161.684211H134.736842V107.789474a107.789474 107.789474 0 0 1 107.789474-107.789474h619.789473a107.789474 107.789474 0 0 1 107.789474 107.789474v808.421052a107.789474 107.789474 0 0 1-107.789474 107.789474zM269.473684 229.052632v26.947368A40.421053 40.421053 0 0 1 229.052632 296.421053h-134.736843A40.421053 40.421053 0 0 1 53.894737 256v-26.947368A40.421053 40.421053 0 0 1 94.315789 188.631579h134.736843A40.421053 40.421053 0 0 1 269.473684 229.052632zM94.315789 458.105263h134.736843A40.421053 40.421053 0 0 1 269.473684 498.526316v26.947368A40.421053 40.421053 0 0 1 229.052632 565.894737h-134.736843A40.421053 40.421053 0 0 1 53.894737 525.473684v-26.947368A40.421053 40.421053 0 0 1 94.315789 458.105263z m0 269.473684h134.736843A40.421053 40.421053 0 0 1 269.473684 768v26.947368A40.421053 40.421053 0 0 1 229.052632 835.368421h-134.736843A40.421053 40.421053 0 0 1 53.894737 794.947368v-26.947368A40.421053 40.421053 0 0 1 94.315789 727.578947z" fill="#666666" p-id="6559"></path></svg>