<?xml version="1.0" standalone="no"?><!DOCTYPE svg PUBLIC "-//W3C//DTD SVG 1.1//EN" "http://www.w3.org/Graphics/SVG/1.1/DTD/svg11.dtd"><svg t="1493801109369" class="icon" style="" viewBox="0 0 1024 1024" version="1.1" xmlns="http://www.w3.org/2000/svg" p-id="4863" xmlns:xlink="http://www.w3.org/1999/xlink" width="48" height="48"><defs><style type="text/css"></style></defs><path d="M759.572072 307.24259c0 41.156221-10.129215 79.937671-28.015951 113.999337-171.146787 3.45748-308.826114 143.259118-308.826114 315.232047 0 87.362683 35.53538 166.420846 92.932212 223.527246L201.721211 960.001219l0-1.200728c-76.061476 0-137.721404-61.737924-137.721404-137.894842 0-52.27578 29.052477-97.753595 71.87227-121.138021l-0.002053-0.002053 0.019499-0.00821c41.831502-24.050471 91.638094-41.932076 187.269377-75.672522l-0.001026-0.013341c35.127953-10.955357 48.771092-31.496009 49.2247-61.602457 0.77175-51.293646-19.464102-53.548346-63.842789-114.74543l0.021552 0.003079c-27.806594-39.797449-44.132384-88.227822-44.132384-140.483077C264.428954-17.08112 759.572072-17.08112 759.572072 307.24259z" p-id="4864" fill="#999999"></path><path d="M738.044155 512.947754c123.449165 0 223.526219 100.076028 223.526219 223.526219s-100.077054 223.527246-223.526219 223.527246c-123.450192 0-223.527246-100.077054-223.527246-223.527246S614.593964 512.947754 738.044155 512.947754L738.044155 512.947754zM602.84428 765.004082l83.5573 83.5573c15.90297 15.90297 41.687826 15.90297 57.590796 0l127.895963-127.895963c15.90297-15.90297 15.90297-41.687826 0-57.590796s-41.687826-15.90297-57.590796 0l-99.100052 99.100052-54.761389-54.761389c-15.90297-15.90297-41.687826-15.90297-57.590796 0S586.94131 749.101112 602.84428 765.004082z" p-id="4865" fill="#999999"></path></svg>