<?xml version="1.0" standalone="no"?><!DOCTYPE svg PUBLIC "-//W3C//DTD SVG 1.1//EN" "http://www.w3.org/Graphics/SVG/1.1/DTD/svg11.dtd"><svg t="1493805200387" class="icon" style="" viewBox="0 0 1024 1024" version="1.1" xmlns="http://www.w3.org/2000/svg" p-id="7292" xmlns:xlink="http://www.w3.org/1999/xlink" width="48" height="48"><defs><style type="text/css"></style></defs><path d="M0.021489 226.64902l0 565.265134c0 52.747341 10.677177 62.807465 62.807465 62.807465l711.814862 0c51.700499 0 62.807465-9.630335 62.807465-62.807465L837.45128 226.64902c0-51.501978-9.850345-62.807465-62.807465-62.807465L62.827931 163.841555C10.897188 163.842579 0.021489 172.83437 0.021489 226.64902zM738.843448 708.170868 99.058087 708.170868c69.925582-101.957113 194.272635-271.954879 225.8754-271.954879 30.586622 0 134.407176 137.349181 181.303252 185.700399 0 0 60.315714-80.592526 91.918479-80.592526C630.385271 541.323862 737.796606 707.333804 738.843448 708.170868zM550.850843 352.263949c0-42.708707 34.533514-77.242222 77.242222-77.242222 42.708707 0 77.242222 34.533514 77.242222 77.242222s-34.533514 77.242222-77.242222 77.242222C585.384357 429.506171 550.850843 394.972657 550.850843 352.263949zM392.762315 125.954667 270.309402 102.716406c-40.645722-7.713682-56.749492-4.933359-66.693981 23.23826L392.762315 125.954667zM969.642998 235.431034l-95.847975-18.189268c0.037862 2.328022 0.059352 4.643764 0.059352 6.925736l0 568.477292c0 26.377764-1.74576 56.230676-22.601764 76.66917-20.282952 19.8767-49.66412 21.542642-75.610048 21.542642l-57.795311 0 122.985032 23.339568c50.79385 9.639544 63.501266 2.248204 73.41608-49.995671l105.390305-555.35339C1029.240351 258.247692 1021.670955 245.303892 969.642998 235.431034z" p-id="7293" fill="#666666"></path></svg>