<?xml version="1.0" standalone="no"?><!DOCTYPE svg PUBLIC "-//W3C//DTD SVG 1.1//EN" "http://www.w3.org/Graphics/SVG/1.1/DTD/svg11.dtd"><svg t="1493802834487" class="icon" style="" viewBox="0 0 1024 1024" version="1.1" xmlns="http://www.w3.org/2000/svg" p-id="5723" xmlns:xlink="http://www.w3.org/1999/xlink" width="48" height="48"><defs><style type="text/css"></style></defs><path d="M789.80293 985.398369c-31.751192 0-61.797468-6.044248-90.147776-18.144674-28.350308-12.095455-53.109855-28.726085-74.275659-49.892884-21.163816-21.167793-37.793452-45.923363-49.891889-74.271683-12.094461-28.350308-18.144674-58.394596-18.144674-90.151752 0-31.750198 6.050213-61.797468 18.144674-90.145788 12.098438-28.349314 28.730062-52.922961 49.891889-73.706029 21.165804-20.791021 45.925352-37.234756 74.275659-49.329218 28.349314-12.098438 58.39559-18.145668 90.147776-18.145668 31.75318 0 61.80045 6.047231 90.149764 18.145668 28.350308 12.094461 52.916996 28.537202 73.707023 49.329218 20.790027 20.786051 37.23078 45.360692 49.328224 73.706029 12.094461 28.349314 18.146662 58.394596 18.146662 90.145788 0 31.754174-6.053195 61.801444-18.146662 90.151752-12.093467 28.350308-28.537202 53.102896-49.328224 74.271683-20.791021 21.168787-45.358703 37.799416-73.707023 49.892884C851.604375 979.35412 821.557104 985.398369 789.80293 985.398369L789.80293 985.398369 789.80293 985.398369zM904.332488 715.521689l-83.912657 0 0-78.241203c0-10.587376-3.396907-19.655736-10.203645-27.219-6.80475-7.558293-15.497333-11.33893-26.083715-11.33893-10.580417 0-18.898217 3.780638-24.942465 11.33893-6.046237 7.563263-9.073331 16.631624-9.073331 27.219l0 78.241203-73.707023 0c-10.580417 0-19.65176 3.774673-27.212041 11.340918-7.560281 7.557299-11.339924 16.632618-11.339924 27.212041 0 10.580417 3.779643 18.52244 11.339924 23.816128 7.561275 5.2917 16.631624 7.932082 27.212041 7.932082l73.707023 0 0 80.511773c0 10.587376 3.027095 19.655736 9.073331 27.215023 6.045242 7.563263 14.362048 11.33893 24.942465 11.33893 10.586382 0 19.277971-3.776661 26.084709-11.33893 6.805744-7.560281 10.203645-16.627647 10.203645-27.215023l0-80.511773 83.911663 0 0 2.271564c10.585387 0 19.654742-3.022124 27.213035-9.068361 7.563263-6.052201 11.339924-14.369007 11.339924-24.949424 0-10.579423-3.776661-19.655736-11.339924-27.212041-7.557299-7.566246-16.627647-11.341913-27.213035-11.341913l0 0L904.332488 715.521689zM624.251169 433.169801c-3.025106 12.093467-6.053195 23.055626-9.075319 32.883494-3.022124 8.315812-6.805744 16.820507-11.33893 25.512096-4.536169 8.692583-9.448114 15.309445-14.73882 19.843625-6.805744 5.2917-11.528807 10.963153-14.176148 17.010384-2.646347 6.045242-4.917911 12.277379-6.805744 18.706352-1.887833 6.427979-3.968526 13.037881-6.233131 19.843625-2.272558 6.805744-6.053195 13.6095-11.33893 20.411267-17.39312 22.67786-30.432989 44.603172-39.126566 65.769971-8.692583 21.166798-14.73882 41.577072-18.144674 61.23579-3.400884 19.653748-4.346292 39.124578-2.838212 58.394596 1.51305 19.279959 4.535174 37.990287 9.074325 56.131979 3.024112 13.604529 7.559287 27.779683 13.604529 42.523474 6.052201 14.737826 14.933667 29.860376 26.647381 45.359697 11.71769 15.497333 26.648375 30.61193 44.796031 45.358703 18.140698 14.73882 40.817564 28.91298 68.036564 42.523474-18.145668 3.775667-39.313461 7.181521-63.502383 10.20464-20.41425 2.272558-45.547586 4.345298-75.40498 6.233131-29.862364 1.897775-64.073008 2.838212-102.623979 2.838212-19.65673 0-42.523474-0.753543-68.604206-2.265599-26.083715-1.51305-52.915008-3.402872-80.510779-5.669465-27.589806-2.269575-54.8098-4.915922-81.645069-7.939041-26.831293-3.024112-51.405934-6.236113-73.707023-9.638985-22.298107-3.398896-41.2003-6.993633-56.697633-10.773276-15.492363-3.778649-25.133336-7.181521-28.914968-10.203645-6.80475-6.053195-12.092473-22.873702-15.873111-50.465497-3.781632-27.58583-2.646347-63.688284 3.400884-108.290462 3.780638-24.947436 13.796394-44.033542 30.048265-57.267264 16.254853-13.227758 35.339964-23.619292 57.267264-31.182555 21.919347-7.559287 44.789073-14.552919 68.602218-20.97891 23.813145-6.423008 44.794043-15.30348 62.937723-26.64241 14.363043-9.072337 25.325201-17.580014 32.8825-25.515078 7.557299-7.939041 12.848998-16.063982 15.873111-24.381782 3.024112-8.310841 4.536169-17.010384 4.536169-26.078744 0-9.069355-0.376771-18.899211-1.134291-29.485593-1.514044-15.873111-6.988662-28.349314-16.440753-37.417674-9.451097-9.074325-19.466854-18.145668-30.048265-27.214029-6.053195-4.539151-11.339924-11.337936-15.879075-20.413256-4.535174-9.068361-8.311835-17.762932-11.339924-26.07775-3.775667-9.828862-6.800773-20.791021-9.069355-32.883494-5.292694-1.512056-10.203645-3.780638-14.737826-6.805744-3.781632-3.022124-7.940035-7.563263-12.476203-13.610494-4.53418-6.045242-8.692583-15.115591-12.475209-27.214029-3.781632-11.339924-5.103811-21.920341-3.968526-31.747215 1.132302-9.828862 3.215977-18.144674 6.24009-24.950418 3.024112-8.315812 7.181521-15.498327 12.470239-21.542576 0-25.701973 1.516033-51.405934 4.541139-77.111883 3.024112-21.919347 7.744193-45.359697 14.176148-70.300174 6.423008-24.949424 16.820507-47.251507 31.183549-66.902273 13.604529-18.902194 28.160431-34.400521 43.652794-46.492 15.497333-12.098438 31.564297-21.54357 48.193933-28.349314 16.629636-6.805744 33.262254-11.527813 49.894872-14.176148C380.068509 1.324168 395.947584 0 411.067152 0c19.653748 0 38.550971 2.271564 56.695645 6.805744 18.144674 4.533186 34.963193 10.580417 50.46152 18.144674 15.500316 7.557299 29.294722 16.062987 41.388189 25.51309 12.098438 9.44712 21.925312 19.084117 29.483604 28.91298 17.386161 21.921335 30.04727 46.115228 37.990287 72.570744 7.93407 26.460486 13.79043 51.405934 17.573055 74.841314 3.781632 27.214029 5.293688 54.427064 4.536169 81.649046 4.535174 3.775667 8.3178 8.310841 11.33893 13.603535 3.02113 4.53418 5.292694 10.587376 6.805744 18.144674s1.51305 17.010384 0 28.349314c-1.51305 14.363043-4.536169 25.702967-9.068361 34.019773-4.540145 8.3178-9.451097 14.737826-14.744785 19.279959-6.053195 5.286729-12.479186 9.068361-19.279959 11.339924l0 0L624.251169 433.169801z" p-id="5724" fill="#999999"></path></svg>