<?xml version="1.0" standalone="no"?><!DOCTYPE svg PUBLIC "-//W3C//DTD SVG 1.1//EN" "http://www.w3.org/Graphics/SVG/1.1/DTD/svg11.dtd"><svg t="1493263596729" class="icon" style="" viewBox="0 0 1024 1024" version="1.1" xmlns="http://www.w3.org/2000/svg" p-id="4604" xmlns:xlink="http://www.w3.org/1999/xlink" width="200" height="200"><defs><style type="text/css"></style></defs><path d="M512.01 0C794.768 0 1024 229.232 1024 512.01 1024 794.768 794.768 1024 512.01 1024 229.232 1024 0 794.768 0 512.01 0 229.232 229.232 0 512.01 0z" fill="#FFECB4" p-id="4605"></path><path d="M197.134 521.66l0.02 7.776c0.04 19.75 1.524 24.088 4.298 35.868l0.214-0.02c23.716 138.976 138.606 246.872 280.942 259.942l1.192 0.098c1.876 0.156 3.75 0.312 5.646 0.45l2.5 0.156c1.622 0.118 3.224 0.196 4.826 0.274 1.036 0.058 2.09 0.078 3.146 0.118 1.446 0.058 2.872 0.118 4.318 0.156 1.68 0.04 3.34 0.04 5.02 0.058 0.8 0.02 1.64 0.04 2.442 0.04l0.372-0.02c2.364 0 4.728-0.04 7.072-0.078l1.114-0.02a709.74 709.74 0 0 0 6.642-0.254l1.894-0.098c1.954-0.118 3.926-0.234 5.88-0.372l2.774-0.214 3.828-0.352c141.106-13.148 255.136-119.48 279.966-256.854 3.028-11.8 3.068-15.472 4.572-34.168h0.372c0.04-1.192 0.058-2.364 0.098-3.536V528.636c1.974-23.462-1.074-61.986-9.046-91.818l-0.41-1.582C782.56 298.624 658.938 197.428 511.698 197.428c-150.796 0-276.8 106.156-307.432 247.81-0.04 0.098-0.058 0.214-0.098 0.312l-0.508 1.934-0.312 1.152-0.546 2.07c-3.888 16.058-5.118 35.204-5.49 51.946a296.996 296.996 0 0 0-0.156 9.358v0.586c-0.022 3.184-0.022 6.212-0.022 9.064z" fill="#FFE8A3" p-id="4606"></path><path d="M258.75 519.766l0.02 6.252c0.04 15.902 1.23 19.38 3.458 28.854l0.176-0.02c19.066 111.784 111.47 198.56 225.95 209.07l0.958 0.078c1.524 0.136 3.028 0.254 4.552 0.372l2.012 0.118c1.29 0.098 2.578 0.156 3.888 0.234 0.82 0.04 1.68 0.04 2.52 0.098 1.172 0.02 2.306 0.078 3.478 0.118 1.348 0.02 2.676 0.02 4.024 0.04 0.664 0.02 1.328 0.02 1.974 0.02h0.294c1.914 0 3.81-0.04 5.684-0.058l0.918-0.02c1.778-0.058 3.556-0.136 5.334-0.214l1.524-0.058c1.562-0.098 3.164-0.196 4.728-0.312l2.228-0.176c1.036-0.078 2.052-0.176 3.086-0.274 113.482-10.588 205.202-96.096 225.168-206.59 2.442-9.494 2.462-12.444 3.692-27.486H764.71l0.058-2.832v-1.11h0.02V525.384c1.582-18.872-0.88-49.854-7.286-73.844l-0.332-1.27c-27.564-109.888-126.982-191.274-245.406-191.274-121.278 0-222.628 85.39-247.262 199.322-0.04 0.078-0.058 0.176-0.078 0.254l-0.41 1.544-0.254 0.938-0.45 1.66c-3.126 12.914-4.102 28.308-4.396 41.786-0.078 2.5-0.136 5.002-0.136 7.522v0.468c-0.028 2.548-0.028 4.99-0.028 7.276z" fill="#FFE599" p-id="4607"></path><path d="M321.478 517.832l0.02 4.708c0.02 11.956 0.918 14.574 2.598 21.704h0.136c14.34 84.1 83.846 149.37 169.98 157.282l0.722 0.058c1.134 0.098 2.266 0.196 3.418 0.274l1.504 0.098c0.976 0.058 1.954 0.118 2.93 0.156 0.626 0.04 1.27 0.04 1.894 0.078 0.88 0.02 1.738 0.078 2.618 0.098 1.016 0.02 2.012 0.02 3.028 0.04 0.508 0 0.996 0.02 1.484 0.02l0.234-0.02c1.426 0 2.852-0.02 4.278-0.04l0.664-0.02c1.348-0.04 2.696-0.098 4.024-0.156l1.152-0.058c1.172-0.058 2.364-0.136 3.556-0.214l1.68-0.136c0.782-0.058 1.544-0.136 2.306-0.214 85.39-7.95 154.39-72.282 169.414-155.426 1.816-7.13 1.836-9.358 2.754-20.668H702.106l0.058-2.13V522.056c1.192-14.182-0.664-37.508-5.47-55.54l-0.254-0.976c-20.746-82.656-95.53-143.88-184.632-143.88-91.232 0-167.48 64.234-186.018 149.956a1.828 1.828 0 0 0-0.058 0.196l-0.312 1.152-0.176 0.704-0.332 1.25c-2.364 9.71-3.106 21.314-3.322 31.432a136.664 136.664 0 0 0-0.098 5.666v0.352c-0.014 1.928-0.014 3.744-0.014 5.464z" fill="#FFE28E" p-id="4608"></path><path d="M398.528 515.488l0.02 2.794c0.02 7.11 0.546 8.674 1.544 12.932l0.078-0.02c8.538 50.09 49.952 88.966 101.234 93.674l0.43 0.04 2.052 0.176 0.898 0.04 1.738 0.118c0.372 0 0.742 0.02 1.134 0.04l1.544 0.058c0.606 0 1.212 0 1.816 0.02h1.016c0.84 0 1.7-0.02 2.54-0.02l0.41-0.02c0.8-0.02 1.602-0.058 2.384-0.098l0.684-0.02c0.722-0.04 1.426-0.098 2.13-0.136l0.996-0.078c0.468-0.04 0.918-0.078 1.368-0.136 50.87-4.728 91.954-43.056 100.902-92.56 1.094-4.24 1.114-5.568 1.64-12.308H625.224c0.02-0.43 0.02-0.86 0.04-1.27V517.978c0.722-8.458-0.39-22.33-3.262-33.074l-0.136-0.586c-12.366-49.23-56.908-85.684-109.966-85.684-54.348 0-99.75 38.25-110.786 89.298-0.02 0.04-0.02 0.078-0.04 0.118l-0.176 0.684-0.118 0.43-0.196 0.742c-1.406 5.782-1.856 12.678-1.974 18.716a94.44 94.44 0 0 0-0.058 3.38v0.214c-0.024 1.142-0.024 2.236-0.024 3.272z" fill="#FFDF81" p-id="4609"></path><path d="M935.934 294.364c5.314 0 10.334 0.86 14.768 2.384 4.806-3.204 11.39-5.176 18.638-5.176 1.72 0 3.418 0.098 5.04 0.312a510.112 510.112 0 0 1 22.252 54.564c-3.848 2.91-9.436 4.728-15.628 4.728-5.842 0-11.136-1.622-14.944-4.24-3.81 2.618-9.104 4.24-14.944 4.24-5.548 0-10.608-1.466-14.378-3.848-3.828 2.852-9.358 4.65-15.512 4.65-5.764 0-10.98-1.562-14.768-4.122-1.738 0.274-3.536 0.41-5.392 0.41-13.85 0-25.064-7.638-25.064-17.036 0-9.416 11.214-17.054 25.064-17.054 0.742 0 1.504 0.04 2.228 0.078 1.774-11.198 15.702-19.89 32.64-19.89zM629.576 147.22c8.674 0 16.878 1.406 24.126 3.888 7.834-5.236 18.598-8.458 30.456-8.458 20.532 0 37.742 9.67 42.354 22.662 10.256 2.11 18.48 7.384 22.252 14.144a47.278 47.278 0 0 1 3.75-0.136c18.97 0 34.364 10.452 34.364 23.364 0 12.894-15.394 23.364-34.364 23.364-5.92 0-11.486-1.016-16.332-2.814-4.18 9.71-17.368 16.8-32.996 16.8-9.534 0-18.168-2.638-24.4-6.916-6.232 4.278-14.866 6.916-24.42 6.916-9.064 0-17.328-2.384-23.482-6.29-6.27 4.67-15.296 7.6-25.358 7.6-9.396 0-17.914-2.56-24.106-6.72a58.962 58.962 0 0 1-8.81 0.644c-22.622 0-40.946-12.464-40.946-27.838s18.324-27.838 40.946-27.838c1.23 0 2.442 0.058 3.654 0.136 2.91-18.286 25.668-32.508 53.312-32.508z" fill="#FFFFFF" p-id="4610"></path><path d="M526.876 82.656s11.584-2.482 21.274-0.626c9.71 1.856 19.828 9.904 30.788 10.53 10.96 0.626 8.674-3.516 8.674-3.516s-7.032 1.036-8.888-4.942c-1.856-5.998 5.782-10.764 17.562-19.008 11.78-8.264 14.046-16.528 11.78-21.704 0 0-2.07 3.302-11.78 8.478-9.71 5.158-16.722 14.672-24.36 21.47-7.658 6.838-8.068 7.248-15.296 5.802s-22.72-3.732-29.754 3.516zM299.794 170.702s11.566-2.482 21.274-0.626c9.71 1.876 19.828 9.924 30.788 10.55 10.94 0.606 8.674-3.516 8.674-3.516s-7.032 1.036-8.888-4.962c-1.856-5.978 5.782-10.744 17.562-18.988 11.78-8.264 14.046-16.528 11.78-21.704 0 0-2.07 3.302-11.78 8.478-9.71 5.158-16.742 14.672-24.38 21.47-7.638 6.818-8.068 7.228-15.296 5.782-7.21-1.446-22.72-3.712-29.734 3.516z" fill="" p-id="4611"></path><path d="M0.156 524.082h1023.688C1017.436 801.274 790.744 1024 512.01 1024S6.584 801.274 0.156 524.082z" fill="#B1E9F1" p-id="4612"></path><path d="M851.832 568.566c-1.68-8.87 9.866-25.924 13.832-39.58 3.966-13.656-9.748-33.446-9.748-33.446 11.292 5.47 27.624-1.368 37.86-6.818 10.236-5.47 26.628-8.87 26.628-8.87-42.998-37.548-75.212-8.888-75.212-8.888s-14.886-11.604-31.96-27.292c-8.83-8.126-26.06-21-45.46-32.194-1.7-1.992-8.654-10.334-8.654-14.008 0-12.152 24.126-22.016 7.092-25.338-22.876-4.474-68.532 14.222-73.962 16.508-30.768 0.626-65.17 10.822-87.93 29.088-28.072 22.524-7.58 40.262-7.58 40.262s-28.522 20.492-22.212 34.812a9.624 9.624 0 0 0 2.286 3.224c1.66 1.484 3.848 2.306 6.446 2.578 5.002 0.546 47.12-14.534 50.832-16.038 8.712-3.516 19.224-7.052 31.258-10.1 0.958 5.548 3.068 11.682 7.424 16.742 10.862 12.698 20.826 11.468 21.762 9.084 1.582-4.082-6.858-14.222-3.302-31.12a197.98 197.98 0 0 1 6.33-0.918c3.4 4.688 7.522 9.124 11.252 12.326 10.236 8.772 29.44 20.376 33.836 16.274 3.262-3.048-7.286-17.036-10.608-31.316 2.246-0.058 4.512-0.078 6.798-0.078 44.366 0 93.518 23.208 93.518 23.208-22.528 44.35 19.416 81.858 19.474 81.898z m-222.882-100.12c-23.696 27.408-15.16 17.542 0 0z" fill="#FFB100" p-id="4613"></path><path d="M548.6 550.046c78.65 0 142.396 19.144 142.396 42.744 0 23.618-63.744 42.744-142.396 42.744-78.63 0-142.376-19.126-142.376-42.744 0-23.6 63.746-42.744 142.376-42.744z" fill="#C0EDF3" p-id="4614"></path><path d="M782.402 600.056c102.602 0 185.764 5.372 185.764 11.994 0 6.604-83.164 11.976-185.764 11.976s-185.764-5.372-185.764-11.976c0-6.62 83.164-11.994 185.764-11.994z m185.336 145.522c-1.016 1.992-2.09 3.946-3.126 5.92-20.434 5.626-89.082 9.748-170.644 9.748-97.678 0-176.856-5.92-176.856-13.206 0-7.306 79.178-13.206 176.856-13.206 86.426 0 158.356 4.63 173.77 10.744zM125.34 603.124c56.34 0 102.016 4.336 102.016 9.71s-45.674 9.728-102.016 9.728-102.016-4.356-102.016-9.728 45.676-9.71 102.016-9.71z m209.774 120.77c125.204 0 226.692 3.594 226.692 8.01 0 4.396-101.488 7.99-226.692 7.99-125.184 0-226.672-3.594-226.672-7.99 0-4.416 101.488-8.01 226.672-8.01z m-52.198 47.08c92.052 0 166.658 3.262 166.658 7.286 0 4.044-74.606 7.306-166.658 7.306s-166.658-3.262-166.658-7.306c-0.002-4.024 74.606-7.286 166.658-7.286z m243.16 46.338c102.132 0 184.924 4.024 184.924 8.986 0 4.962-82.792 8.986-184.924 8.986-102.112 0-184.904-4.024-184.904-8.986-0.002-4.96 82.79-8.986 184.904-8.986zM470.418 564.17c-0.664 3.048-77.01 30.26-2.774 51.262 0.8 0.214 1.602 0.43 2.442 0.664 0.82 0.234-41.396-20.884 0.332-51.926z" fill="#DFF5F9" p-id="4615"></path><path d="M511.814 602.968c5.06 0.528 29.498 36.61 87.54 5.138 0.606-0.332 1.25-0.684 1.876-1.036 0.624-0.352-48.196 16.86-89.416-4.102zM608.712 578.098c-6.682-0.8-33.758-48.84-110.278-1.23-0.8 0.488 20.122-7.444 19.302-6.916-0.842 0.528 36.628-23.56 90.976 8.146z" fill="#DFF5F9" p-id="4616"></path></svg>