<?xml version="1.0" standalone="no"?><!DOCTYPE svg PUBLIC "-//W3C//DTD SVG 1.1//EN" "http://www.w3.org/Graphics/SVG/1.1/DTD/svg11.dtd"><svg t="1492590440892" class="icon" style="" viewBox="0 0 1024 1024" version="1.1" xmlns="http://www.w3.org/2000/svg" p-id="1054" xmlns:xlink="http://www.w3.org/1999/xlink" width="200" height="200"><defs><style type="text/css"></style></defs><path d="M913.92 880.128c-60.928 0-110.08-49.152-110.08-110.08L803.84 337.408c0-15.36 12.288-27.648 27.648-27.648l123.904 0c37.888 0 68.608 30.72 68.608 68.608l0 391.68C1024 830.976 974.848 880.128 913.92 880.128zM859.136 365.056l0 405.504c0 30.208 24.576 54.784 54.784 54.784s54.784-24.576 54.784-54.784L968.704 378.368c0-7.68-6.144-13.824-13.824-13.824L859.136 364.544zM919.552 879.104 110.08 879.104C49.152 879.104 0 829.952 0 769.024L0 212.48c0-37.888 30.72-68.608 68.608-68.608l721.92 0c37.888 0 68.608 30.72 68.608 68.608l0 546.304c0 57.344 30.208 65.024 59.904 65.024 15.36 0 27.648 12.288 27.648 27.648S934.4 879.104 919.552 879.104zM68.608 198.656c-7.68 0-13.824 6.144-13.824 13.824l0 556.544c0 30.208 24.576 54.784 54.784 54.784l708.096 0c-9.216-17.92-14.336-39.936-14.336-65.024L803.328 212.48c0-7.68-6.144-13.824-13.824-13.824L68.608 198.656zM716.288 313.344 143.872 313.344c-15.36 0-27.648-12.288-27.648-27.648 0-15.36 12.288-27.648 27.648-27.648l572.416 0c15.36 0 27.648 12.288 27.648 27.648C743.936 300.544 731.648 313.344 716.288 313.344zM391.68 553.472 143.872 553.472c-15.36 0-27.648-12.288-27.648-27.648L116.224 402.432c0-15.36 12.288-27.648 27.648-27.648l247.296 0c15.36 0 27.648 12.288 27.648 27.648l0 123.904C419.328 541.184 407.04 553.472 391.68 553.472zM171.52 498.688l192 0L363.52 430.08 171.52 430.08 171.52 498.688zM716.288 429.056 491.52 429.056c-14.848 0-27.136-12.288-27.136-27.136 0-14.848 12.288-27.136 27.136-27.136l224.768 0c14.848 0 27.136 12.288 27.136 27.136C743.424 417.28 731.648 429.056 716.288 429.056zM716.288 553.472 491.52 553.472c-14.848 0-27.136-12.288-27.136-27.136 0-14.848 12.288-27.136 27.136-27.136l224.768 0c14.848 0 27.136 12.288 27.136 27.136C743.424 541.696 731.648 553.472 716.288 553.472z" p-id="1055"></path></svg>